<?xml version="1.0" encoding="utf-8"?>
<!-- Generator: Adobe Illustrator 23.0.1, SVG Export Plug-In . SVG Version: 6.00 Build 0)  -->
<svg version="1.1" id="Layer_1" xmlns="http://www.w3.org/2000/svg" xmlns:xlink="http://www.w3.org/1999/xlink" x="0px" y="0px"
	 viewBox="0 310 800 150" style="enable-background:new 0 0 100 100;" xml:space="preserve">
<style type="text/css">
	.st0{fill:#2A54FF;}
	.st1{fill:#0055E9;}
	.st2{fill:#00FF64;}
	.st3{fill:#FF7F6A;}
	.st4{fill:#E5FF35;}
	.st5{fill:#003E94;}
</style>
<polygon class="st0" points="101.24,352.21 101.24,446.79 128.32,446.79 128.32,457 91.43,457 91.43,342 128.32,342 128.32,352.21 
	"/>
<polygon class="st1" points="237.57,342 237.57,457 200.22,457 200.22,446.79 226.83,446.79 226.83,352.21 200.22,352.21 
	200.22,342 "/>
<rect x="237.57" y="371.26" class="st2" width="51.36" height="7.49"/>
<rect x="237.57" y="416.17" class="st3" width="51.36" height="8.17"/>
<rect x="237.57" y="393.04" class="st4" width="77.5" height="9.53"/>
<rect x="40.08" y="416.85" class="st3" width="51.36" height="6.8"/>
<rect x="40.08" y="371.94" class="st2" width="51.36" height="6.12"/>
<rect x="13" y="392.36" class="st4" width="78.43" height="9.53"/>
<path class="st5" d="M191.34,386.91c-12.14,6.12-13.54,2.04-13.54,2.04c-1.4-3.4-9.34-2.72-9.34-2.72
	c-16.81,0.68-14.47,4.76-14.47,4.76c0.47,4.08,7.94,3.4,7.94,3.4c8.4-0.68,18.67,3.4,18.67,3.4c21.01,12.25-4.2,23.14-4.2,23.14
	c-5.6,4.08-39.22,4.08-39.22,4.08c-5.6,0.68-7-4.76-7-4.76c-2.8-19.05,15.41-8.17,15.41-8.17c24.74,7.49,30.35-4.08,28.95-5.44
	c-0.47-5.44-10.27-5.44-10.27-5.44c-25.68,0.68-21.94-13.61-21.94-13.61c5.14-21.78,55.09-12.25,55.09-12.25
	C207.69,377.38,191.34,386.91,191.34,386.91z"/>
<g>
	<g>
		<g>
			<path d="M380.74,385.03c0,0.36-0.18,0.93-0.53,1.71c-0.36,0.78-0.53,1.38-0.53,1.78c0,0.23,0,0.34,0,0.57
				c0,1.34-0.23,2.22-0.68,2.64c-0.65,0.6-2.02,0.87-4.12,0.79c-2.33-0.09-3.89-0.73-4.7-1.91c-0.42-0.57-0.66-1.52-0.73-2.84
				c-4.43-1.38-9.06-2.21-13.91-2.49c-6.2-0.36-11.31,0.04-15.31,1.26c-4.01,1.22-6.01,2.99-6.01,5.36c0,2.02,1.28,3.6,3.83,4.7
				c1.77,0.77,5.66,1.78,11.63,2.94c5.39,1.05,9.08,1.77,11.05,2.23c3.36,0.78,5.93,1.6,7.7,2.49c2.65,1.32,3.97,2.96,3.97,4.95
				c0,2.06-2.05,3.61-6.15,4.62c-4.1,1.01-9.72,1.32-16.86,0.86c-5.36-0.35-9.66-1.18-12.89-2.44c-0.04,1.49-0.06,2.23-0.1,3.72
				c-0.03,1.23-1.62,1.73-4.75,1.46c-3.26-0.28-4.89-1.25-4.89-2.9c0-1.07,0-1.6,0-2.67c0-3.54,0.27-5.85,0.82-6.91
				c0.74-1.43,2.36-2.03,4.85-1.82c1.97,0.17,3.29,0.57,3.97,1.23c0.39,0.4,0.76,0.96,1.02,1.65c0.34,0.89,0.58,1.53,0.78,1.83
				c1.03,1.69,4.3,2.75,9.79,3.12c9.53,0.63,14.29-0.24,14.29-2.4c0-1.07-1.02-1.98-3.05-2.76c-1.68-0.64-4.65-1.38-8.92-2.24
				c-3.51-0.7-5.26-1.06-8.77-1.8c-6.43-1.37-10.94-2.86-13.52-4.38c-2.68-1.58-4.02-3.61-4.02-6.07c0-3.58,2.96-6.19,8.87-7.93
				s13.53-2.28,22.87-1.74c5.36,0.31,10.43,1.12,15.21,2.45c0.87-1.25,2.58-1.82,5.14-1.72
				C379.19,382.52,380.74,383.38,380.74,385.03z"/>
			<path d="M428.79,402.16c-0.01,3.5-0.9,6.32-2.66,8.43c-1.68,2.01-3.79,3.03-6.35,3.02c-1.45,0-2.68-0.17-3.68-0.51
				c-1-0.34-1.5-0.73-1.5-1.15c3.04-4.29,4.55-7.55,4.55-9.77c0-3.32-1-5.73-3-7.25c-2.07-1.56-5.43-2.36-10.08-2.41
				c-2.46-0.03-4.96,0.16-7.51,0.57c-2.55,0.41-4.53,0.92-5.91,1.54c-1.71,0.77-2.57,2-2.57,3.67c0,0.47,0,0.71,0,1.18
				c0,3.12,0.31,6.16,0.94,9.11c0.63,2.95,0.94,4.33,0.94,4.13c0,1.21-1.49,1.79-4.46,1.71c-1.71-0.05-2.92-0.29-3.63-0.71
				c-0.61-0.36-1.13-1.07-1.55-2.13c-1.1-2.89-1.65-6.71-1.65-11.45c0-4.15,1.21-8.87,3.63-14.15c0.55-1.15,1.07-1.89,1.55-2.23
				c0.74-0.49,1.95-0.72,3.63-0.67c1.23,0.03,2.26,0.23,3.1,0.59c0.84,0.36,1.26,0.81,1.26,1.35c0-0.02-0.82,2.02-2.47,6.12
				c4.26-1.41,9.62-1.89,15.55-2C415.13,389,428.82,391.15,428.79,402.16z"/>
			<path d="M479.99,395.91c0,1.27-1.16,2.26-3.49,2.94c-1.03,0.3-4.32,0.76-9.84,1.34c-7.33,0.77-13.58,1.2-18.75,1.29
				c-2.36,0.04-5.2,0.02-8.53-0.06c0,4.62,4.63,6.89,13.91,6.7c2.55-0.05,4.86-0.38,6.93-0.98c1.03-0.29,2.89-0.99,5.57-2.11
				c0.97-0.41,1.99-0.62,3.05-0.65c1.36-0.04,2.53,0.12,3.51,0.48c0.99,0.36,1.48,0.82,1.48,1.38c0,0.47-0.47,0.91-1.41,1.33
				c-5.56,2.47-12.06,3.8-19.53,3.95c-15.44,0.31-23.16-3.08-23.16-9.85c0-3.49,2.46-6.52,7.36-9.11c5.58-2.94,12.5-4.49,20.74-4.67
				c6.43-0.15,11.73,0.52,15.89,2.02C477.9,391.4,479.99,393.4,479.99,395.91z M470.35,396.43c-0.19-1.7-1.37-3.01-3.51-3.94
				c-2.15-0.93-4.84-1.36-8.07-1.28c-4.2,0.1-7.9,0.75-11.1,1.93c-3.28,1.22-5.75,2.87-7.36,5c2.29,0.07,4.73,0.08,7.32,0.04
				C453.89,398.07,461.46,397.5,470.35,396.43z"/>
			<path d="M516.02,391.88c0,0.47-0.37,0.87-1.11,1.22c-0.74,0.35-1.63,0.55-2.67,0.59c-0.78,0.03-1.92-0.13-3.44-0.5
				c-1.52-0.36-2.89-0.52-4.12-0.47c-3.07,0.13-5.56,0.74-7.46,1.83c-1.91,1.1-2.86,2.51-2.86,4.25c0,0.96,0,1.44,0,2.41
				c0,2.68-0.74,4.84-2.23,6.48c-1.39,1.53-3.18,2.34-5.38,2.42c-2.94,0.1-4.41-0.4-4.41-1.5c0-0.22,0.45-1.05,1.36-2.48
				c0.9-1.43,1.36-2.77,1.36-4.01c0-3.43-1.29-6.13-3.88-8.1c-0.07-0.06-0.95-0.65-2.67-1.77c-0.87-0.57-1.31-1.04-1.31-1.39
				c0-0.39,0.5-0.78,1.5-1.15c1-0.38,2.08-0.58,3.25-0.62c3.42-0.12,6.27,1.38,8.53,4.48c3.36-2.57,8.25-3.99,14.68-4.25
				c3.23-0.13,5.85,0.04,7.85,0.52C515.02,390.34,516.02,391.01,516.02,391.88z"/>
			<path d="M566.69,394.49c0,3.6-2.78,6.6-8.33,9c-5.56,2.4-12.97,3.82-22.24,4.26c-7.69,0.36-13.71-0.37-18.07-2.16
				c-4.36-1.8-6.54-4.47-6.54-8.01c0-3.73,2.63-6.73,7.9-9.02c5.17-2.25,12.34-3.59,21.51-4.02c7.69-0.36,13.91,0.37,18.65,2.19
				C564.31,388.55,566.69,391.14,566.69,394.49z M557.04,394.99c0-2.46-1.57-4.32-4.72-5.56c-3.15-1.24-7.45-1.73-12.91-1.48
				c-12.18,0.57-18.27,3.61-18.27,9.16c0,2.56,1.32,4.47,3.97,5.73c2.65,1.26,6.44,1.77,11.39,1.54c6.4-0.3,11.42-1.28,15.07-2.93
				C555.22,399.8,557.04,397.64,557.04,394.99z"/>
			<path d="M635.04,392.32c0,9.39-2.94,14.16-8.82,14.35c-2.26,0.07-3.39-0.43-3.39-1.5c0-0.01,0.55-1.43,1.65-4.25
				c1.1-2.82,1.65-5.62,1.65-8.39c0-4.62-2.88-6.84-8.62-6.63c-5.04,0.18-8.37,1.48-9.93,3.87c-1.2,1.82-1.79,5.38-1.79,10.62
				c0,0.81,0.16,1.69,0.48,2.65c0.32,0.96,0.48,1.53,0.48,1.7c0,1.21-1.52,1.88-4.55,2c-3.65,0.15-5.48-1.98-5.48-6.41
				c0-1.86,0.19-3.82,0.56-5.86c0.37-2.04,0.56-3.14,0.56-3.29c0-1.81-2.52-2.62-7.56-2.4c-4.72,0.21-8.14,1.16-10.27,2.87
				c-2.07,1.65-3.1,4.16-3.1,7.53c0,2.17,0.16,4.18,0.48,6.03c0.32,1.85,0.48,2.63,0.48,2.34c0,0.47-0.44,0.87-1.33,1.22
				c-0.89,0.35-2.03,0.55-3.41,0.62c-2.88,0.13-4.65-0.83-5.33-2.88c-0.23-0.59-0.34-2.14-0.34-4.65c0-5.26,1.13-10.33,3.39-15.21
				c0.74-1.6,1.5-2.68,2.23-3.23c0.87-0.65,2.28-1.04,4.22-1.13c3.04-0.14,4.55,0.41,4.55,1.63c-0.87,1.7-1.31,2.55-2.18,4.25
				c2.78-1.61,6.75-2.53,11.92-2.75c4.13-0.18,7.38,0.34,9.74,1.54c4.1-2.73,9.88-4.24,17.35-4.51
				C629.58,382.06,635.04,385.39,635.04,392.32z"/>
			<path d="M685.85,388.63c0,1.27-1.16,2.22-3.49,2.83c-1.03,0.27-4.32,0.62-9.84,1.1c-7.33,0.64-13.58,1.03-18.75,1.13
				c-2.36,0.05-5.2,0.05-8.53,0c0,4.62,4.63,6.8,13.91,6.64c2.55-0.04,4.86-0.35,6.93-0.93c1.03-0.28,2.89-0.96,5.57-2.03
				c0.97-0.39,1.99-0.59,3.05-0.59c1.36-0.01,2.53,0.18,3.51,0.56c0.99,0.38,1.48,0.85,1.48,1.42c0,0.47-0.47,0.9-1.41,1.29
				c-5.56,2.33-12.06,3.54-19.53,3.67c-15.44,0.26-23.16-2.85-23.16-9.63c0-3.49,2.46-6.59,7.36-9.24
				c5.58-3.02,12.5-4.62,20.74-4.73c6.43-0.09,11.73,0.69,15.89,2.3C683.76,384.04,685.85,386.12,685.85,388.63z M676.2,388.88
				c-0.19-1.7-1.37-3.04-3.51-4.02c-2.15-0.97-4.84-1.44-8.07-1.4c-4.2,0.06-7.9,0.71-11.1,1.9c-3.28,1.22-5.75,2.9-7.36,5.05
				c2.29,0.04,4.73,0.04,7.32-0.01C659.75,390.27,667.32,389.74,676.2,388.88z"/>
			<path d="M736.56,377.58c0-0.07-0.21,0.85-0.58,2.73c-0.43,2.18-0.8,4.56-1.07,7.03c-0.38,3.55-0.53,7.42-0.53,11.48
				c0,0.83,0.02,1.69,0.05,2.57c0.03,0.88,0.05,1.34,0.05,1.39c0,1.83-1.53,2.67-4.58,2.56c-3.34-0.13-5.02-1.21-5.02-3.26
				c0-0.48,0.03-0.85,0.1-1.12c-6.1,2.08-13.16,3.04-21.2,2.92c-6.71-0.1-12.03-0.94-15.95-2.6c-3.92-1.66-5.88-3.91-5.88-6.79
				c0-3.92,2.85-7.1,8.54-9.5c5.7-2.39,13.16-3.54,22.38-3.34c4.29,0.09,8.73,0.59,13.31,1.49c0.23-3.39,0.53-5.41,0.92-6.07
				c0.71-1.23,2.5-1.79,5.36-1.67C735.2,375.52,736.56,376.25,736.56,377.58z M725.71,386.72c-4.23-1.15-8.47-1.77-12.72-1.86
				c-6.58-0.14-11.77,0.66-15.58,2.34c-3.81,1.69-5.71,4.02-5.71,6.97c0,2.02,1.28,3.6,3.85,4.74c2.56,1.14,6.1,1.73,10.62,1.81
				c5.68,0.09,10-0.52,12.97-1.87c0.84-0.46,1.67-0.94,2.47-1.38c0.9-0.5,2.1-0.76,3.48-0.81
				C725.08,393.22,725.29,389.91,725.71,386.72z"/>
			<path d="M781.99,397.36c0.05,3.3-1.29,6.74-3.88,10.17c-1.29,1.72-3.21,2.47-5.77,2.26c-2.62-0.22-3.92-0.88-3.92-2.01
				c0-0.26,0.03-0.45,0.1-0.56c-3.29,0.42-6.7,0.5-10.22,0.27c-6.23-0.42-11.1-1.35-14.61-2.86c-3.5-1.52-5.26-3.46-5.26-5.86
				c0-2.44,1.89-4.29,5.67-5.52c3.78-1.23,8.8-1.67,15.07-1.24c5.46,0.37,10.06,1.43,13.81,3.12c-0.61-4.89-5.35-7.74-14.2-8.33
				c-1.97-0.13-4.08-0.04-6.32,0.27c-2.25,0.31-3.71,0.45-4.39,0.42c-1.1-0.06-2.08-0.29-2.96-0.67s-1.31-0.8-1.31-1.24
				c0-0.74,1.41-1.34,4.22-1.81c3-0.5,6.68-0.53,10.76-0.35C767.09,383.75,781.82,386.48,781.99,397.36z M772.16,400.81
				c0-3.11-3.86-5.01-11.58-5.55c-8.46-0.59-12.69,0.75-12.69,3.84c0,3.11,4.2,4.87,12.6,5.45c3.65,0.25,6.51,0.07,8.58-0.59
				C771.12,403.32,772.16,402.27,772.16,400.81z"/>
		</g>
		<g>
			<path d="M380.74,385.03c0,0.36-0.18,0.93-0.53,1.71c-0.36,0.78-0.53,1.38-0.53,1.78c0,0.23,0,0.34,0,0.57
				c0,1.34-0.23,2.22-0.68,2.64c-0.65,0.6-2.02,0.87-4.12,0.79c-2.33-0.09-3.89-0.73-4.7-1.91c-0.42-0.57-0.66-1.52-0.73-2.84
				c-4.43-1.38-9.06-2.21-13.91-2.49c-6.2-0.36-11.31,0.04-15.31,1.26c-4.01,1.22-6.01,2.99-6.01,5.36c0,2.02,1.28,3.6,3.83,4.7
				c1.77,0.77,5.66,1.78,11.63,2.94c5.39,1.05,9.08,1.77,11.05,2.23c3.36,0.78,5.93,1.6,7.7,2.49c2.65,1.32,3.97,2.96,3.97,4.95
				c0,2.06-2.05,3.61-6.15,4.62c-4.1,1.01-9.72,1.32-16.86,0.86c-5.36-0.35-9.66-1.18-12.89-2.44c-0.04,1.49-0.06,2.23-0.1,3.72
				c-0.03,1.23-1.62,1.73-4.75,1.46c-3.26-0.28-4.89-1.25-4.89-2.9c0-1.07,0-1.6,0-2.67c0-3.54,0.27-5.85,0.82-6.91
				c0.74-1.43,2.36-2.03,4.85-1.82c1.97,0.17,3.29,0.57,3.97,1.23c0.39,0.4,0.76,0.96,1.02,1.65c0.34,0.89,0.58,1.53,0.78,1.83
				c1.03,1.69,4.3,2.75,9.79,3.12c9.53,0.63,14.29-0.24,14.29-2.4c0-1.07-1.02-1.98-3.05-2.76c-1.68-0.64-4.65-1.38-8.92-2.24
				c-3.51-0.7-5.26-1.06-8.77-1.8c-6.43-1.37-10.94-2.86-13.52-4.38c-2.68-1.58-4.02-3.61-4.02-6.07c0-3.58,2.96-6.19,8.87-7.93
				s13.53-2.28,22.87-1.74c5.36,0.31,10.43,1.12,15.21,2.45c0.87-1.25,2.58-1.82,5.14-1.72
				C379.19,382.52,380.74,383.38,380.74,385.03z"/>
			<path d="M428.79,402.16c-0.01,3.5-0.9,6.32-2.66,8.43c-1.68,2.01-3.79,3.03-6.35,3.02c-1.45,0-2.68-0.17-3.68-0.51
				c-1-0.34-1.5-0.73-1.5-1.15c3.04-4.29,4.55-7.55,4.55-9.77c0-3.32-1-5.73-3-7.25c-2.07-1.56-5.43-2.36-10.08-2.41
				c-2.46-0.03-4.96,0.16-7.51,0.57c-2.55,0.41-4.53,0.92-5.91,1.54c-1.71,0.77-2.57,2-2.57,3.67c0,0.47,0,0.71,0,1.18
				c0,3.12,0.31,6.16,0.94,9.11c0.63,2.95,0.94,4.33,0.94,4.13c0,1.21-1.49,1.79-4.46,1.71c-1.71-0.05-2.92-0.29-3.63-0.71
				c-0.61-0.36-1.13-1.07-1.55-2.13c-1.1-2.89-1.65-6.71-1.65-11.45c0-4.15,1.21-8.87,3.63-14.15c0.55-1.15,1.07-1.89,1.55-2.23
				c0.74-0.49,1.95-0.72,3.63-0.67c1.23,0.03,2.26,0.23,3.1,0.59c0.84,0.36,1.26,0.81,1.26,1.35c0-0.02-0.82,2.02-2.47,6.12
				c4.26-1.41,9.62-1.89,15.55-2C415.13,389,428.82,391.15,428.79,402.16z"/>
			<path d="M479.99,395.91c0,1.27-1.16,2.26-3.49,2.94c-1.03,0.3-4.32,0.76-9.84,1.34c-7.33,0.77-13.58,1.2-18.75,1.29
				c-2.36,0.04-5.2,0.02-8.53-0.06c0,4.62,4.63,6.89,13.91,6.7c2.55-0.05,4.86-0.38,6.93-0.98c1.03-0.29,2.89-0.99,5.57-2.11
				c0.97-0.41,1.99-0.62,3.05-0.65c1.36-0.04,2.53,0.12,3.51,0.48c0.99,0.36,1.48,0.82,1.48,1.38c0,0.47-0.47,0.91-1.41,1.33
				c-5.56,2.47-12.06,3.8-19.53,3.95c-15.44,0.31-23.16-3.08-23.16-9.85c0-3.49,2.46-6.52,7.36-9.11c5.58-2.94,12.5-4.49,20.74-4.67
				c6.43-0.15,11.73,0.52,15.89,2.02C477.9,391.4,479.99,393.4,479.99,395.91z M470.35,396.43c-0.19-1.7-1.37-3.01-3.51-3.94
				c-2.15-0.93-4.84-1.36-8.07-1.28c-4.2,0.1-7.9,0.75-11.1,1.93c-3.28,1.22-5.75,2.87-7.36,5c2.29,0.07,4.73,0.08,7.32,0.04
				C453.89,398.07,461.46,397.5,470.35,396.43z"/>
			<path d="M516.02,391.88c0,0.47-0.37,0.87-1.11,1.22c-0.74,0.35-1.63,0.55-2.67,0.59c-0.78,0.03-1.92-0.13-3.44-0.5
				c-1.52-0.36-2.89-0.52-4.12-0.47c-3.07,0.13-5.56,0.74-7.46,1.83c-1.91,1.1-2.86,2.51-2.86,4.25c0,0.96,0,1.44,0,2.41
				c0,2.68-0.74,4.84-2.23,6.48c-1.39,1.53-3.18,2.34-5.38,2.42c-2.94,0.1-4.41-0.4-4.41-1.5c0-0.22,0.45-1.05,1.36-2.48
				c0.9-1.43,1.36-2.77,1.36-4.01c0-3.43-1.29-6.13-3.88-8.1c-0.07-0.06-0.95-0.65-2.67-1.77c-0.87-0.57-1.31-1.04-1.31-1.39
				c0-0.39,0.5-0.78,1.5-1.15c1-0.38,2.08-0.58,3.25-0.62c3.42-0.12,6.27,1.38,8.53,4.48c3.36-2.57,8.25-3.99,14.68-4.25
				c3.23-0.13,5.85,0.04,7.85,0.52C515.02,390.34,516.02,391.01,516.02,391.88z"/>
			<path d="M566.69,394.49c0,3.6-2.78,6.6-8.33,9c-5.56,2.4-12.97,3.82-22.24,4.26c-7.69,0.36-13.71-0.37-18.07-2.16
				c-4.36-1.8-6.54-4.47-6.54-8.01c0-3.73,2.63-6.73,7.9-9.02c5.17-2.25,12.34-3.59,21.51-4.02c7.69-0.36,13.91,0.37,18.65,2.19
				C564.31,388.55,566.69,391.14,566.69,394.49z M557.04,394.99c0-2.46-1.57-4.32-4.72-5.56c-3.15-1.24-7.45-1.73-12.91-1.48
				c-12.18,0.57-18.27,3.61-18.27,9.16c0,2.56,1.32,4.47,3.97,5.73c2.65,1.26,6.44,1.77,11.39,1.54c6.4-0.3,11.42-1.28,15.07-2.93
				C555.22,399.8,557.04,397.64,557.04,394.99z"/>
			<path d="M635.04,392.32c0,9.39-2.94,14.16-8.82,14.35c-2.26,0.07-3.39-0.43-3.39-1.5c0-0.01,0.55-1.43,1.65-4.25
				c1.1-2.82,1.65-5.62,1.65-8.39c0-4.62-2.88-6.84-8.62-6.63c-5.04,0.18-8.37,1.48-9.93,3.87c-1.2,1.82-1.79,5.38-1.79,10.62
				c0,0.81,0.16,1.69,0.48,2.65c0.32,0.96,0.48,1.53,0.48,1.7c0,1.21-1.52,1.88-4.55,2c-3.65,0.15-5.48-1.98-5.48-6.41
				c0-1.86,0.19-3.82,0.56-5.86c0.37-2.04,0.56-3.14,0.56-3.29c0-1.81-2.52-2.62-7.56-2.4c-4.72,0.21-8.14,1.16-10.27,2.87
				c-2.07,1.65-3.1,4.16-3.1,7.53c0,2.17,0.16,4.18,0.48,6.03c0.32,1.85,0.48,2.63,0.48,2.34c0,0.47-0.44,0.87-1.33,1.22
				c-0.89,0.35-2.03,0.55-3.41,0.62c-2.88,0.13-4.65-0.83-5.33-2.88c-0.23-0.59-0.34-2.14-0.34-4.65c0-5.26,1.13-10.33,3.39-15.21
				c0.74-1.6,1.5-2.68,2.23-3.23c0.87-0.65,2.28-1.04,4.22-1.13c3.04-0.14,4.55,0.41,4.55,1.63c-0.87,1.7-1.31,2.55-2.18,4.25
				c2.78-1.61,6.75-2.53,11.92-2.75c4.13-0.18,7.38,0.34,9.74,1.54c4.1-2.73,9.88-4.24,17.35-4.51
				C629.58,382.06,635.04,385.39,635.04,392.32z"/>
			<path d="M685.85,388.63c0,1.27-1.16,2.22-3.49,2.83c-1.03,0.27-4.32,0.62-9.84,1.1c-7.33,0.64-13.58,1.03-18.75,1.13
				c-2.36,0.05-5.2,0.05-8.53,0c0,4.62,4.63,6.8,13.91,6.64c2.55-0.04,4.86-0.35,6.93-0.93c1.03-0.28,2.89-0.96,5.57-2.03
				c0.97-0.39,1.99-0.59,3.05-0.59c1.36-0.01,2.53,0.18,3.51,0.56c0.99,0.38,1.48,0.85,1.48,1.42c0,0.47-0.47,0.9-1.41,1.29
				c-5.56,2.33-12.06,3.54-19.53,3.67c-15.44,0.26-23.16-2.85-23.16-9.63c0-3.49,2.46-6.59,7.36-9.24
				c5.58-3.02,12.5-4.62,20.74-4.73c6.43-0.09,11.73,0.69,15.89,2.3C683.76,384.04,685.85,386.12,685.85,388.63z M676.2,388.88
				c-0.19-1.7-1.37-3.04-3.51-4.02c-2.15-0.97-4.84-1.44-8.07-1.4c-4.2,0.06-7.9,0.71-11.1,1.9c-3.28,1.22-5.75,2.9-7.36,5.05
				c2.29,0.04,4.73,0.04,7.32-0.01C659.75,390.27,667.32,389.74,676.2,388.88z"/>
			<path d="M736.56,377.58c0-0.07-0.21,0.85-0.58,2.73c-0.43,2.18-0.8,4.56-1.07,7.03c-0.38,3.55-0.53,7.42-0.53,11.48
				c0,0.83,0.02,1.69,0.05,2.57c0.03,0.88,0.05,1.34,0.05,1.39c0,1.83-1.53,2.67-4.58,2.56c-3.34-0.13-5.02-1.21-5.02-3.26
				c0-0.48,0.03-0.85,0.1-1.12c-6.1,2.08-13.16,3.04-21.2,2.92c-6.71-0.1-12.03-0.94-15.95-2.6c-3.92-1.66-5.88-3.91-5.88-6.79
				c0-3.92,2.85-7.1,8.54-9.5c5.7-2.39,13.16-3.54,22.38-3.34c4.29,0.09,8.73,0.59,13.31,1.49c0.23-3.39,0.53-5.41,0.92-6.07
				c0.71-1.23,2.5-1.79,5.36-1.67C735.2,375.52,736.56,376.25,736.56,377.58z M725.71,386.72c-4.23-1.15-8.47-1.77-12.72-1.86
				c-6.58-0.14-11.77,0.66-15.58,2.34c-3.81,1.69-5.71,4.02-5.71,6.97c0,2.02,1.28,3.6,3.85,4.74c2.56,1.14,6.1,1.73,10.62,1.81
				c5.68,0.09,10-0.52,12.97-1.87c0.84-0.46,1.67-0.94,2.47-1.38c0.9-0.5,2.1-0.76,3.48-0.81
				C725.08,393.22,725.29,389.91,725.71,386.72z"/>
			<path d="M781.99,397.36c0.05,3.3-1.29,6.74-3.88,10.17c-1.29,1.72-3.21,2.47-5.77,2.26c-2.62-0.22-3.92-0.88-3.92-2.01
				c0-0.26,0.03-0.45,0.1-0.56c-3.29,0.42-6.7,0.5-10.22,0.27c-6.23-0.42-11.1-1.35-14.61-2.86c-3.5-1.52-5.26-3.46-5.26-5.86
				c0-2.44,1.89-4.29,5.67-5.52c3.78-1.23,8.8-1.67,15.07-1.24c5.46,0.37,10.06,1.43,13.81,3.12c-0.61-4.89-5.35-7.74-14.2-8.33
				c-1.97-0.13-4.08-0.04-6.32,0.27c-2.25,0.31-3.71,0.45-4.39,0.42c-1.1-0.06-2.08-0.29-2.96-0.67s-1.31-0.8-1.31-1.24
				c0-0.74,1.41-1.34,4.22-1.81c3-0.5,6.68-0.53,10.76-0.35C767.09,383.75,781.82,386.48,781.99,397.36z M772.16,400.81
				c0-3.11-3.86-5.01-11.58-5.55c-8.46-0.59-12.69,0.75-12.69,3.84c0,3.11,4.2,4.87,12.6,5.45c3.65,0.25,6.51,0.07,8.58-0.59
				C771.12,403.32,772.16,402.27,772.16,400.81z"/>
		</g>
	</g>
</g>
</svg>
